<svg width="16" height="16" viewBox="0 0 16 16" fill="none" xmlns="http://www.w3.org/2000/svg">
<path d="M14.5 15.5H1.5C0.9475 15.5 0.5 15.0525 0.5 14.5V1.5C0.5 0.9475 0.9475 0.5 1.5 0.5H14.5C15.0525 0.5 15.5 0.9475 15.5 1.5V14.5C15.5 15.0525 15.0525 15.5 14.5 15.5Z" fill="url(#paint0_linear)"/>
<path opacity="0.2" d="M14.5 0.875C14.845 0.875 15.125 1.155 15.125 1.5V14.5C15.125 14.845 14.845 15.125 14.5 15.125H1.5C1.155 15.125 0.875 14.845 0.875 14.5V1.5C0.875 1.155 1.155 0.875 1.5 0.875H14.5ZM14.5 0.5H1.5C0.9475 0.5 0.5 0.9475 0.5 1.5V14.5C0.5 15.0525 0.9475 15.5 1.5 15.5H14.5C15.0525 15.5 15.5 15.0525 15.5 14.5V1.5C15.5 0.9475 15.0525 0.5 14.5 0.5Z" fill="black"/>
<g opacity="0.2">
<path opacity="0.2" d="M3.17875 10.5475C3.5675 10.5475 3.86375 10.625 4.0675 10.7813C4.27125 10.9375 4.3725 11.17 4.3725 11.4788C4.3725 11.6363 4.33 11.7775 4.245 11.9038C4.16 12.03 4.035 12.1275 3.87125 12.1963C4.0575 12.2463 4.20125 12.3413 4.3025 12.4813C4.40375 12.6213 4.455 12.7875 4.455 12.9838C4.455 13.3063 4.35125 13.555 4.14375 13.7288C3.93625 13.9025 3.64 13.9888 3.25375 13.9888H2.125C2.055 13.9888 1.99875 13.9325 1.99875 13.8625V10.6738C1.99875 10.6038 2.055 10.5475 2.125 10.5475H3.17875ZM2.72375 11.9963H3.18375C3.37 11.9963 3.515 11.9538 3.62 11.87C3.725 11.7863 3.7775 11.6663 3.7775 11.5125C3.7775 11.3425 3.72875 11.22 3.6325 11.1438C3.53625 11.0675 3.385 11.03 3.18 11.03H2.725C2.655 11.03 2.59875 11.0863 2.59875 11.1563V11.8713C2.5975 11.94 2.655 11.9963 2.72375 11.9963ZM2.72375 13.5063H3.26125C3.44875 13.5063 3.595 13.46 3.70125 13.3675C3.80625 13.275 3.86 13.1463 3.86 12.9813C3.86 12.625 3.6775 12.4438 3.31125 12.435H2.72375C2.65375 12.435 2.5975 12.4913 2.5975 12.5613V13.38C2.5975 13.45 2.655 13.5063 2.72375 13.5063ZM3.17875 10.1725H2.125C1.84875 10.1725 1.62375 10.3975 1.62375 10.6738V13.8625C1.62375 14.1388 1.84875 14.3638 2.125 14.3638H3.25375C3.72875 14.3638 4.10875 14.2475 4.38375 14.0163C4.5875 13.8463 4.82875 13.5288 4.82875 12.9838C4.82875 12.7088 4.75375 12.465 4.605 12.2613C4.57875 12.2263 4.55125 12.1925 4.52125 12.16C4.5325 12.145 4.54375 12.13 4.55375 12.1138C4.68125 11.925 4.745 11.7113 4.745 11.4788C4.745 10.9425 4.5 10.6425 4.29375 10.4838C4.0275 10.2775 3.65125 10.1725 3.17875 10.1725ZM2.9725 11.405H3.17875C3.315 11.405 3.37375 11.4263 3.39375 11.435C3.3975 11.4463 3.4025 11.47 3.4025 11.5125C3.4025 11.565 3.39125 11.5738 3.385 11.5788C3.35125 11.6063 3.2775 11.6225 3.18375 11.6225H2.9725V11.405ZM2.9725 12.81H3.3075C3.47875 12.8138 3.485 12.8438 3.485 12.9813C3.485 13.0588 3.465 13.0763 3.455 13.085C3.42125 13.115 3.3525 13.1313 3.2625 13.1313H2.97375V12.81H2.9725Z" fill="black"/>
<path opacity="0.2" d="M6.495 10.5475C6.5475 10.5475 6.59375 10.58 6.6125 10.6288L7.81875 13.8175C7.85 13.9 7.78875 13.9888 7.70125 13.9888H7.35C7.29625 13.9888 7.24875 13.955 7.23125 13.905L7.00875 13.2725C6.99125 13.2225 6.94375 13.1888 6.89 13.1888H5.73625C5.71004 13.1887 5.68448 13.1969 5.66317 13.2121C5.64186 13.2274 5.62589 13.2489 5.6175 13.2738L5.3975 13.9063C5.38911 13.9311 5.37314 13.9526 5.35183 13.9679C5.33052 13.9831 5.30496 13.9913 5.27875 13.9913H4.92875C4.84 13.9913 4.78 13.9025 4.81125 13.8213L6.01625 10.6325C6.035 10.5838 6.08125 10.5513 6.13375 10.5513H6.495V10.5475ZM5.9925 12.705H6.635C6.72125 12.705 6.7825 12.6188 6.75375 12.5375L6.4325 11.6188C6.4125 11.5625 6.36375 11.5338 6.31375 11.5338C6.26375 11.5338 6.215 11.5625 6.195 11.6188L5.87375 12.5375C5.84375 12.6188 5.905 12.705 5.9925 12.705ZM6.495 10.1725H6.1325C6.03082 10.1729 5.93163 10.204 5.84797 10.2618C5.7643 10.3195 5.70008 10.4013 5.66375 10.4963L4.45875 13.685C4.4 13.8388 4.42125 14.0113 4.515 14.1475C4.56119 14.2142 4.62283 14.2687 4.69467 14.3063C4.7665 14.344 4.84639 14.3637 4.9275 14.3638H5.2775C5.49 14.3638 5.68125 14.2288 5.75125 14.0275L5.9125 13.5625H6.7125L6.87625 14.0288C6.94625 14.2288 7.13625 14.3638 7.34875 14.3638H7.70125C7.86625 14.3638 8.02 14.2825 8.11375 14.1475C8.2075 14.0125 8.22875 13.8388 8.17 13.685L6.96375 10.4963C6.92757 10.4012 6.86338 10.3193 6.77969 10.2615C6.69599 10.2037 6.59672 10.1727 6.495 10.1725Z" fill="black"/>
<path opacity="0.2" d="M9.52999 10.5C9.90999 10.5 10.215 10.6025 10.4475 10.8088C10.6475 10.9863 10.775 11.2262 10.83 11.53C10.8437 11.6087 10.785 11.6812 10.7062 11.6812H10.3675C10.3062 11.6812 10.2525 11.6387 10.2412 11.58C10.2062 11.385 10.1387 11.24 10.04 11.1462C9.92374 11.0362 9.75499 10.9825 9.53124 10.9825C9.27124 10.9825 9.07124 11.0775 8.93249 11.2675C8.79249 11.4575 8.72124 11.7363 8.71874 12.1038V12.4087C8.71874 12.7812 8.78499 13.065 8.91874 13.26C9.05124 13.455 9.24624 13.5538 9.50374 13.5538C9.73874 13.5538 9.91499 13.5013 10.0337 13.395C10.135 13.3038 10.205 13.1612 10.2425 12.9675C10.2537 12.9087 10.3062 12.8675 10.365 12.8675H10.7087C10.7887 12.8675 10.8475 12.9413 10.8325 13.0188C10.7787 13.3138 10.65 13.55 10.4475 13.7262C10.2112 13.9325 9.89624 14.035 9.50499 14.035C9.23124 14.035 8.98999 13.97 8.78124 13.84C8.57249 13.71 8.41124 13.525 8.29749 13.2863C8.18374 13.0463 8.12499 12.7688 8.11999 12.4525V12.1313C8.11999 11.8063 8.17749 11.5213 8.29249 11.2738C8.40749 11.0263 8.57249 10.8363 8.78749 10.7013C8.99874 10.5675 9.24749 10.5 9.52999 10.5ZM9.52999 10.125C9.17874 10.125 8.86124 10.2112 8.58624 10.3825C8.30874 10.555 8.09499 10.8012 7.94874 11.115C7.81124 11.4112 7.74124 11.7525 7.74124 12.1313V12.4525C7.74624 12.8275 7.81874 13.16 7.95499 13.4475C8.09874 13.7525 8.30874 13.9912 8.57874 14.16C8.84749 14.3275 9.15749 14.4113 9.50124 14.4113C9.98499 14.4113 10.385 14.2762 10.69 14.0112C10.9575 13.7787 11.1287 13.4675 11.1987 13.0887C11.2262 12.9412 11.1862 12.79 11.09 12.675C11.0431 12.6185 10.9842 12.573 10.9177 12.5419C10.8511 12.5108 10.7785 12.4948 10.705 12.495H10.3625C10.1225 12.495 9.91624 12.665 9.87124 12.8988C9.84249 13.05 9.79874 13.1025 9.78124 13.1175C9.75999 13.1363 9.68999 13.18 9.50124 13.18C9.33749 13.18 9.27249 13.1175 9.22624 13.0513C9.16499 12.9613 9.09124 12.7763 9.09124 12.4113V12.1062C9.09374 11.8275 9.14249 11.615 9.23249 11.4925C9.27999 11.4275 9.35249 11.36 9.52874 11.36C9.64874 11.36 9.73874 11.3825 9.77999 11.4213C9.79749 11.4388 9.84249 11.4938 9.86999 11.6488C9.91249 11.8863 10.1212 12.0588 10.365 12.0588H10.7037C10.8525 12.0588 10.9925 11.9925 11.0887 11.8787C11.185 11.7637 11.225 11.6125 11.1975 11.465C11.1262 11.0775 10.9575 10.7637 10.695 10.53C10.395 10.26 10.0025 10.125 9.52999 10.125Z" fill="black"/>
<path opacity="0.2" d="M13.7737 10.5475C13.8812 10.5475 13.9387 10.6725 13.87 10.755L12.8275 11.9975C12.7912 12.0412 12.7875 12.105 12.8212 12.1512L13.9775 13.79C14.0362 13.8737 13.9762 13.9887 13.875 13.9887H13.475C13.4337 13.9887 13.395 13.9687 13.3712 13.935L12.4625 12.63C12.451 12.6132 12.4355 12.5995 12.4174 12.5901C12.3993 12.5807 12.3791 12.576 12.3587 12.5762C12.325 12.5762 12.2925 12.5887 12.2675 12.6162L12.0187 12.88C11.9962 12.9037 11.985 12.9337 11.985 12.9662V13.8625C11.985 13.9325 11.9287 13.9887 11.8587 13.9887H11.5125C11.4425 13.9887 11.3862 13.9325 11.3862 13.8625V10.6737C11.3862 10.6037 11.4425 10.5475 11.5125 10.5475H11.8587C11.9287 10.5475 11.985 10.6037 11.985 10.6737V11.8062C11.985 11.8837 12.0475 11.9325 12.1125 11.9325C12.1475 11.9325 12.1825 11.9175 12.2087 11.885L12.315 11.7525L13.2837 10.5925C13.3075 10.5637 13.3437 10.5475 13.38 10.5475H13.7737ZM13.7737 10.1725H13.38C13.3065 10.1724 13.234 10.1884 13.1674 10.2196C13.1009 10.2507 13.042 10.2961 12.995 10.3525L12.3575 11.115V10.6737C12.3575 10.3975 12.1325 10.1725 11.8562 10.1725H11.51C11.2337 10.1725 11.0087 10.3975 11.0087 10.6737V13.8625C11.0087 14.1387 11.2337 14.3637 11.51 14.3637H11.8562C12.1325 14.3637 12.3575 14.1387 12.3575 13.8625V13.1362L13.0625 14.1487C13.1086 14.2151 13.1701 14.2693 13.2417 14.3068C13.3133 14.3442 13.3929 14.3638 13.4737 14.3637H13.8737C13.9655 14.3639 14.0555 14.3388 14.134 14.2913C14.2125 14.2437 14.2764 14.1755 14.3187 14.0941C14.361 14.0127 14.3801 13.9212 14.374 13.8296C14.3678 13.7381 14.3366 13.65 14.2837 13.575L13.2387 12.0925L14.1575 10.9962C14.2193 10.9235 14.2588 10.8344 14.2713 10.7397C14.2837 10.645 14.2685 10.5488 14.2275 10.4625C14.1879 10.3755 14.124 10.3019 14.0435 10.2504C13.963 10.199 13.8693 10.1719 13.7737 10.1725Z" fill="black"/>
</g>
<path d="M2 13.8625V10.6738C2 10.6038 2.05625 10.5475 2.12625 10.5475H3.18C3.56875 10.5475 3.865 10.625 4.06875 10.7813C4.2725 10.9375 4.37375 11.17 4.37375 11.4788C4.37375 11.6363 4.33125 11.7775 4.24625 11.9038C4.16125 12.03 4.03625 12.1275 3.8725 12.1963C4.05875 12.2463 4.2025 12.3413 4.30375 12.4813C4.405 12.6213 4.45625 12.7875 4.45625 12.9838C4.45625 13.3063 4.3525 13.555 4.145 13.7288C3.9375 13.9025 3.64125 13.9888 3.255 13.9888H2.12625C2.05625 13.9888 2 13.9325 2 13.8625ZM2.5975 11.87C2.5975 11.94 2.65375 11.9963 2.72375 11.9963H3.18375C3.37 11.9963 3.515 11.9538 3.62 11.87C3.725 11.7863 3.7775 11.6663 3.7775 11.5125C3.7775 11.3425 3.72875 11.22 3.6325 11.1438C3.53625 11.0675 3.385 11.03 3.18 11.03H2.725C2.655 11.03 2.59875 11.0863 2.59875 11.1563V11.87H2.5975ZM2.5975 12.5613V13.38C2.5975 13.45 2.65375 13.5063 2.72375 13.5063H3.26125C3.44875 13.5063 3.595 13.46 3.70125 13.3675C3.80625 13.275 3.86 13.1463 3.86 12.9813C3.86 12.625 3.6775 12.4438 3.31125 12.435H2.72375C2.655 12.435 2.5975 12.4925 2.5975 12.5613Z" fill="#FAFAFA"/>
<path d="M6.88999 13.1875H5.73624C5.71004 13.1874 5.68447 13.1956 5.66316 13.2109C5.64186 13.2261 5.62588 13.2477 5.61749 13.2725L5.39749 13.905C5.38911 13.9298 5.37313 13.9514 5.35182 13.9666C5.33051 13.9819 5.30495 13.9901 5.27874 13.99H4.92874C4.83999 13.99 4.77999 13.9013 4.81124 13.82L6.01624 10.6313C6.03499 10.5825 6.08124 10.55 6.13374 10.55H6.49624C6.54874 10.55 6.59499 10.5825 6.61374 10.6313L7.81999 13.82C7.85124 13.9025 7.78999 13.9913 7.70249 13.9913H7.34999C7.29624 13.9913 7.24874 13.9575 7.23124 13.9075L7.00874 13.275C7.00091 13.2496 6.98515 13.2274 6.96378 13.2117C6.9424 13.196 6.91654 13.1875 6.88999 13.1875ZM5.99249 12.705H6.63499C6.72124 12.705 6.78249 12.6188 6.75374 12.5375L6.43249 11.6188C6.39374 11.5063 6.23374 11.5063 6.19499 11.6188L5.87374 12.5375C5.84374 12.6188 5.90499 12.705 5.99249 12.705Z" fill="#FAFAFA"/>
<path d="M10.705 12.8675C10.785 12.8675 10.8438 12.9413 10.8288 13.0188C10.775 13.3138 10.6463 13.55 10.4438 13.7262C10.2075 13.9325 9.89251 14.035 9.50126 14.035C9.22751 14.035 8.98626 13.97 8.77751 13.84C8.56876 13.71 8.40751 13.525 8.29376 13.2863C8.18001 13.0463 8.12126 12.7688 8.11626 12.4525V12.1313C8.11626 11.8063 8.17376 11.5213 8.28876 11.2738C8.40376 11.0263 8.56876 10.8363 8.78376 10.7013C8.99876 10.5675 9.24751 10.5 9.52876 10.5C9.90876 10.5 10.2138 10.6025 10.4463 10.8088C10.6463 10.9863 10.7738 11.2262 10.8288 11.53C10.8425 11.6087 10.7838 11.6812 10.705 11.6812H10.3663C10.305 11.6812 10.2513 11.6387 10.24 11.58C10.205 11.385 10.1375 11.24 10.0388 11.1462C9.92251 11.0362 9.75376 10.9825 9.53001 10.9825C9.27001 10.9825 9.07001 11.0775 8.93126 11.2675C8.79126 11.4575 8.72001 11.7363 8.71751 12.1038V12.4087C8.71751 12.7812 8.78376 13.065 8.91751 13.26C9.05001 13.455 9.24501 13.5538 9.50251 13.5538C9.73751 13.5538 9.91376 13.5013 10.0325 13.395C10.1338 13.3038 10.2038 13.1612 10.2413 12.9675C10.2525 12.9087 10.305 12.8675 10.3638 12.8675H10.705Z" fill="#FAFAFA"/>
<path d="M12.2662 12.615L12.0175 12.8788C11.995 12.9025 11.9837 12.9325 11.9837 12.965V13.8613C11.9837 13.9313 11.9275 13.9875 11.8575 13.9875H11.5112C11.4412 13.9875 11.385 13.9313 11.385 13.8613V10.6738C11.385 10.6038 11.4412 10.5475 11.5112 10.5475H11.8575C11.9275 10.5475 11.9837 10.6038 11.9837 10.6738V11.8063C11.9837 11.925 12.1325 11.9775 12.2075 11.885L12.3137 11.7525L13.2825 10.5925C13.3062 10.5638 13.3425 10.5475 13.3787 10.5475H13.7725C13.88 10.5475 13.9375 10.6725 13.8687 10.755L12.8262 11.9975C12.79 12.0413 12.7862 12.105 12.82 12.1513L13.9762 13.79C14.035 13.8738 13.975 13.9888 13.8737 13.9888H13.4737C13.4325 13.9888 13.3937 13.9688 13.37 13.935L12.4612 12.63C12.4162 12.5638 12.3212 12.5563 12.2662 12.615Z" fill="#FAFAFA"/>
<path opacity="0.2" d="M6.2475 2C6.505 2 6.75 2.2025 6.75 2.50125V4.25C6.75 4.3875 6.8625 4.5 7 4.5H12.75C13.0262 4.5 13.25 4.72375 13.25 5V6C13.25 6.27625 13.0262 6.5 12.75 6.5H7C6.8625 6.5 6.75 6.6125 6.75 6.75V8.49875C6.75 8.7975 6.505 9 6.2475 9C6.135 9 6.02 8.96125 5.92125 8.875L2.92125 5.87625C2.86765 5.82931 2.82469 5.77146 2.79526 5.70657C2.76584 5.64168 2.75061 5.57125 2.75061 5.5C2.75061 5.42875 2.76584 5.35832 2.79526 5.29343C2.82469 5.22854 2.86765 5.17069 2.92125 5.12375L5.92125 2.125C6.01875 2.03875 6.13375 2 6.2475 2ZM6.2475 1.625C6.0375 1.625 5.835 1.7025 5.67375 1.8425L5.65625 1.86L2.66375 4.85125C2.48 5.01625 2.375 5.2525 2.375 5.5C2.375 5.7475 2.48 5.98375 2.66375 6.14875L5.65625 9.14L5.67375 9.1575C5.83235 9.2971 6.03622 9.37438 6.2475 9.375C6.73125 9.375 7.125 8.9825 7.125 8.49875V6.875H12.75C13.2325 6.875 13.625 6.4825 13.625 6V5C13.625 4.5175 13.2325 4.125 12.75 4.125H7.125V2.50125C7.125 2.0175 6.73125 1.625 6.2475 1.625Z" fill="black"/>
<path d="M5.92125 8.875L2.92125 5.87625C2.86765 5.82931 2.82469 5.77146 2.79526 5.70657C2.76583 5.64168 2.75061 5.57125 2.75061 5.5C2.75061 5.42875 2.76583 5.35832 2.79526 5.29343C2.82469 5.22855 2.86765 5.17069 2.92125 5.12375L5.92125 2.125C6.245 1.8425 6.75 2.07125 6.75 2.50125V4.25C6.75 4.3875 6.8625 4.5 7 4.5H12.75C13.0262 4.5 13.25 4.72375 13.25 5V6C13.25 6.27625 13.0262 6.5 12.75 6.5H7C6.8625 6.5 6.75 6.6125 6.75 6.75V8.49875C6.75 8.92875 6.24375 9.15875 5.92125 8.875Z" fill="#FAFAFA"/>
<defs>
<linearGradient id="paint0_linear" x1="8" y1="0.53125" x2="8" y2="15.5513" gradientUnits="userSpaceOnUse">
<stop/>
<stop offset="0.352"/>
<stop offset="1"/>
</linearGradient>
</defs>
</svg>
