<svg width="20" height="20" viewBox="0 0 20 20" fill="none" xmlns="http://www.w3.org/2000/svg">
<path d="M10 20C11.1046 20 12 19.1046 12 18C12 16.8954 11.1046 16 10 16C8.89543 16 8 16.8954 8 18C8 19.1046 8.89543 20 10 20Z" fill="black"/>
<path d="M10 4C11.1046 4 12 3.10457 12 2C12 0.89543 11.1046 0 10 0C8.89543 0 8 0.89543 8 2C8 3.10457 8.89543 4 10 4Z" fill="black"/>
<path d="M4.343 17.657C5.44757 17.657 6.343 16.7616 6.343 15.657C6.343 14.5524 5.44757 13.657 4.343 13.657C3.23843 13.657 2.343 14.5524 2.343 15.657C2.343 16.7616 3.23843 17.657 4.343 17.657Z" fill="black"/>
<path d="M15.657 6.343C16.7616 6.343 17.657 5.44757 17.657 4.343C17.657 3.23843 16.7616 2.343 15.657 2.343C14.5524 2.343 13.657 3.23843 13.657 4.343C13.657 5.44757 14.5524 6.343 15.657 6.343Z" fill="black"/>
<path d="M1.99999 12.001C3.10511 12.001 4.00099 11.1051 4.00099 9.99999C4.00099 8.89487 3.10511 7.99899 1.99999 7.99899C0.894871 7.99899 -0.00100708 8.89487 -0.00100708 9.99999C-0.00100708 11.1051 0.894871 12.001 1.99999 12.001Z" fill="black"/>
<path d="M18 12C19.1046 12 20 11.1046 20 10C20 8.89543 19.1046 8 18 8C16.8954 8 16 8.89543 16 10C16 11.1046 16.8954 12 18 12Z" fill="black"/>
<path d="M4.343 6.34399C5.44757 6.34399 6.343 5.44856 6.343 4.34399C6.343 3.23942 5.44757 2.34399 4.343 2.34399C3.23843 2.34399 2.343 3.23942 2.343 4.34399C2.343 5.44856 3.23843 6.34399 4.343 6.34399Z" fill="black"/>
<path d="M15.657 17.658C16.7616 17.658 17.657 16.7626 17.657 15.658C17.657 14.5534 16.7616 13.658 15.657 13.658C14.5524 13.658 13.657 14.5534 13.657 15.658C13.657 16.7626 14.5524 17.658 15.657 17.658Z" fill="black"/>
</svg>
